# xmcd
#
# Track frame offsets:
#	150
#	9723
#	20493
#	30899
#	38571
#	48088
#	57508
#
# Disc length: 1002 seconds
#
# Revision: 1
# Processed by: cddbd v1.5.2PL0 Copyright (c) Steve Scherf et al.
# Submitted via: EasyCDDAExtractor 11.0.2.1
#
DISCID=4803e807
DTITLE=Giusy Ferreri - X-Factor
DYEAR=2008
DGENRE=pop
TTITLE0=Remedios
TTITLE1=Besame Mucho
TTITLE2=Ma Che Freddo Fa
TTITLE3=Che cosa c'è
TTITLE4=History Repeating
TTITLE5=La Bambola
TTITLE6=Il Party
EXTD=
EXTT0=
EXTT1=
EXTT2=
EXTT3=
EXTT4=
EXTT5=
EXTT6=
PLAYORDER=
